<svg width="84" height="86" viewBox="0 0 84 86" fill="none" xmlns="http://www.w3.org/2000/svg">
<path d="M41.4393 69.1039C42.0251 69.6896 42.9749 69.6896 43.5607 69.1039L53.1066 59.5579C53.6924 58.9721 53.6924 58.0224 53.1066 57.4366C52.5208 56.8508 51.5711 56.8508 50.9853 57.4366L42.5 65.9219L34.0147 57.4366C33.4289 56.8508 32.4792 56.8508 31.8934 57.4366C31.3076 58.0224 31.3076 58.9721 31.8934 59.5579L41.4393 69.1039ZM41 15.9567L41 68.0432H44L44 15.9567H41Z" fill="#F6F6F6"/>
<path d="M82.5 43C82.5 65.9533 64.3345 84.5 42 84.5C19.6655 84.5 1.5 65.9533 1.5 43C1.5 20.0467 19.6655 1.5 42 1.5C64.3345 1.5 82.5 20.0467 82.5 43Z" stroke="#F6F6F6" stroke-width="3"/>
</svg>
